<svg width="332" height="48" viewBox="0 0 332 48" fill="none" xmlns="http://www.w3.org/2000/svg">
<path d="M319.938 47.3637C317.994 47.3637 316.324 47.1137 314.926 46.6137C313.528 46.125 312.364 45.4773 311.432 44.6705C310.511 43.875 309.778 43.0227 309.233 42.1137L312.438 39.8637C312.801 40.3409 313.261 40.8864 313.818 41.5C314.375 42.125 315.136 42.6648 316.102 43.1193C317.08 43.5853 318.358 43.8182 319.938 43.8182C322.051 43.8182 323.795 43.3068 325.17 42.2841C326.545 41.2614 327.233 39.6591 327.233 37.4773V32.1591H326.892C326.597 32.6364 326.176 33.2273 325.631 33.9318C325.097 34.625 324.324 35.2443 323.313 35.7898C322.313 36.3239 320.96 36.5909 319.256 36.5909C317.142 36.5909 315.244 36.0909 313.563 35.0909C311.892 34.0909 310.568 32.6364 309.591 30.7273C308.625 28.8182 308.142 26.5 308.142 23.7728C308.142 21.0909 308.614 18.7557 309.557 16.7671C310.5 14.7671 311.813 13.2216 313.494 12.1307C315.176 11.0284 317.119 10.4773 319.324 10.4773C321.028 10.4773 322.381 10.7614 323.381 11.3296C324.392 11.8864 325.165 12.5228 325.699 13.2387C326.244 13.9432 326.665 14.5227 326.96 14.9773H327.369V10.8182H331.256V37.75C331.256 40 330.744 41.8296 329.722 43.2387C328.71 44.6591 327.347 45.6989 325.631 46.358C323.926 47.0284 322.028 47.3637 319.938 47.3637ZM319.801 32.9773C321.415 32.9773 322.778 32.608 323.892 31.8693C325.006 31.1307 325.852 30.0682 326.432 28.6818C327.011 27.2955 327.301 25.6364 327.301 23.7046C327.301 21.8182 327.017 20.1534 326.449 18.7103C325.881 17.2671 325.04 16.1364 323.926 15.3182C322.813 14.5 321.438 14.0909 319.801 14.0909C318.097 14.0909 316.676 14.5227 315.54 15.3864C314.415 16.25 313.568 17.4091 313 18.8637C312.443 20.3182 312.165 21.9318 312.165 23.7046C312.165 25.5227 312.449 27.1307 313.017 28.5284C313.597 29.9148 314.449 31.0057 315.574 31.8012C316.71 32.5852 318.119 32.9773 319.801 32.9773Z" fill="#1B2F6A"/>
<path d="M285.314 21.25V37H281.291V10.8182H285.178V14.9091H285.518C286.132 13.5796 287.064 12.5114 288.314 11.7046C289.564 10.8864 291.178 10.4773 293.155 10.4773C294.928 10.4773 296.479 10.8409 297.808 11.5682C299.138 12.2841 300.172 13.375 300.911 14.8409C301.649 16.2955 302.018 18.1364 302.018 20.3637V37H297.996V20.6364C297.996 18.5796 297.462 16.9773 296.393 15.8296C295.325 14.6705 293.859 14.0909 291.996 14.0909C290.712 14.0909 289.564 14.3693 288.553 14.9262C287.553 15.483 286.763 16.2955 286.183 17.3637C285.604 18.4318 285.314 19.7273 285.314 21.25Z" fill="#1B2F6A"/>
<path d="M269.901 37V10.8182H273.923V37H269.901ZM271.946 6.45455C271.162 6.45455 270.486 6.1875 269.918 5.65341C269.361 5.11932 269.082 4.47727 269.082 3.72727C269.082 2.97727 269.361 2.33523 269.918 1.80114C270.486 1.26705 271.162 1 271.946 1C272.73 1 273.401 1.26705 273.957 1.80114C274.526 2.33523 274.81 2.97727 274.81 3.72727C274.81 4.47727 274.526 5.11932 273.957 5.65341C273.401 6.1875 272.73 6.45455 271.946 6.45455Z" fill="#1B2F6A"/>
<path d="M263.849 10.8182V14.2273H250.281V10.8182H263.849ZM254.236 4.54547H258.259V29.5C258.259 30.6364 258.423 31.4887 258.753 32.0568C259.094 32.6137 259.526 32.9887 260.048 33.1818C260.582 33.3637 261.145 33.4546 261.736 33.4546C262.179 33.4546 262.543 33.4318 262.827 33.3864C263.111 33.3296 263.338 33.2841 263.509 33.25L264.327 36.8637C264.054 36.9659 263.673 37.0682 263.185 37.1705C262.696 37.2841 262.077 37.3409 261.327 37.3409C260.19 37.3409 259.077 37.0966 257.986 36.608C256.906 36.1193 256.009 35.375 255.293 34.375C254.588 33.375 254.236 32.1137 254.236 30.5909V4.54547Z" fill="#1B2F6A"/>
<path d="M245.095 2.09088V37H241.072V2.09088H245.095Z" fill="#1B2F6A"/>
<path d="M229.682 26.2955V10.8182H233.705V37H229.682V32.5682H229.409C228.795 33.8977 227.841 35.0284 226.545 35.9602C225.25 36.8807 223.614 37.3409 221.636 37.3409C220 37.3409 218.545 36.9829 217.273 36.267C216 35.5398 215 34.4489 214.273 32.9943C213.545 31.5284 213.182 29.6818 213.182 27.4545V10.8182H217.205V27.1818C217.205 29.0909 217.739 30.6136 218.807 31.75C219.886 32.8864 221.261 33.4545 222.932 33.4545C223.932 33.4545 224.949 33.1989 225.983 32.6875C227.028 32.1761 227.903 31.392 228.608 30.3352C229.324 29.2784 229.682 27.9318 229.682 26.2955Z" fill="#1B2F6A"/>
<path d="M206.649 16.6818L203.035 17.7046C202.808 17.1023 202.473 16.5171 202.03 15.9489C201.598 15.3693 201.007 14.8921 200.257 14.5171C199.507 14.1421 198.547 13.9546 197.376 13.9546C195.774 13.9546 194.439 14.3239 193.371 15.0625C192.314 15.7898 191.785 16.7159 191.785 17.8409C191.785 18.8409 192.149 19.6307 192.876 20.2103C193.604 20.7898 194.74 21.2727 196.285 21.6591L200.172 22.6137C202.513 23.1818 204.257 24.0512 205.405 25.2216C206.553 26.3807 207.126 27.875 207.126 29.7046C207.126 31.2046 206.695 32.5455 205.831 33.7273C204.979 34.9091 203.785 35.8409 202.251 36.5228C200.717 37.2046 198.933 37.5455 196.899 37.5455C194.229 37.5455 192.018 36.9659 190.268 35.8068C188.518 34.6478 187.41 32.9546 186.945 30.7273L190.763 29.7728C191.126 31.1818 191.814 32.2387 192.825 32.9432C193.848 33.6477 195.183 34 196.831 34C198.706 34 200.195 33.6023 201.297 32.8068C202.41 32 202.967 31.0341 202.967 29.9091C202.967 29 202.649 28.2387 202.013 27.625C201.376 27 200.399 26.5341 199.081 26.2273L194.717 25.2046C192.32 24.6364 190.558 23.7557 189.433 22.5625C188.32 21.358 187.763 19.8523 187.763 18.0455C187.763 16.5682 188.178 15.2614 189.007 14.125C189.848 12.9887 190.99 12.0966 192.433 11.4489C193.888 10.8012 195.535 10.4773 197.376 10.4773C199.967 10.4773 202.001 11.0455 203.479 12.1818C204.967 13.3182 206.024 14.8182 206.649 16.6818Z" fill="#1B2F6A"/>
<path d="M164.048 21.25V37H160.026V10.8182H163.912V14.9091H164.253C164.866 13.5796 165.798 12.5114 167.048 11.7046C168.298 10.8864 169.912 10.4773 171.889 10.4773C173.662 10.4773 175.213 10.8409 176.543 11.5682C177.872 12.2841 178.906 13.375 179.645 14.8409C180.384 16.2955 180.753 18.1364 180.753 20.3637V37H176.73V20.6364C176.73 18.5796 176.196 16.9773 175.128 15.8296C174.06 14.6705 172.594 14.0909 170.73 14.0909C169.446 14.0909 168.298 14.3693 167.287 14.9262C166.287 15.483 165.497 16.2955 164.918 17.3637C164.338 18.4318 164.048 19.7273 164.048 21.25Z" fill="#1B2F6A"/>
<path d="M142.021 37.5455C139.658 37.5455 137.584 36.983 135.8 35.858C134.027 34.733 132.641 33.1591 131.641 31.1364C130.652 29.1137 130.158 26.75 130.158 24.0455C130.158 21.3182 130.652 18.9375 131.641 16.9034C132.641 14.8693 134.027 13.2898 135.8 12.1648C137.584 11.0398 139.658 10.4773 142.021 10.4773C144.385 10.4773 146.453 11.0398 148.226 12.1648C150.01 13.2898 151.396 14.8693 152.385 16.9034C153.385 18.9375 153.885 21.3182 153.885 24.0455C153.885 26.75 153.385 29.1137 152.385 31.1364C151.396 33.1591 150.01 34.733 148.226 35.858C146.453 36.983 144.385 37.5455 142.021 37.5455ZM142.021 33.9318C143.817 33.9318 145.294 33.4716 146.453 32.5512C147.612 31.6307 148.47 30.4205 149.027 28.9205C149.584 27.4205 149.862 25.7955 149.862 24.0455C149.862 22.2955 149.584 20.6648 149.027 19.1534C148.47 17.6421 147.612 16.4205 146.453 15.4887C145.294 14.5568 143.817 14.0909 142.021 14.0909C140.226 14.0909 138.749 14.5568 137.589 15.4887C136.43 16.4205 135.572 17.6421 135.016 19.1534C134.459 20.6648 134.18 22.2955 134.18 24.0455C134.18 25.7955 134.459 27.4205 135.016 28.9205C135.572 30.4205 136.43 31.6307 137.589 32.5512C138.749 33.4716 140.226 33.9318 142.021 33.9318Z" fill="#1B2F6A"/>
<path d="M115.209 37.5455C112.754 37.5455 110.641 36.9659 108.868 35.8068C107.095 34.6478 105.732 33.0512 104.777 31.0171C103.822 28.983 103.345 26.6591 103.345 24.0455C103.345 21.3864 103.834 19.0398 104.811 17.0057C105.8 14.9602 107.175 13.3637 108.936 12.2159C110.709 11.0568 112.777 10.4773 115.141 10.4773C116.982 10.4773 118.641 10.8182 120.118 11.5C121.595 12.1818 122.805 13.1364 123.749 14.3637C124.692 15.5909 125.277 17.0227 125.504 18.6591H121.482C121.175 17.4659 120.493 16.4091 119.436 15.4887C118.391 14.5568 116.982 14.0909 115.209 14.0909C113.641 14.0909 112.266 14.5 111.084 15.3182C109.913 16.125 108.999 17.2671 108.339 18.7443C107.692 20.2102 107.368 21.9318 107.368 23.9091C107.368 25.9318 107.686 27.6932 108.322 29.1932C108.97 30.6932 109.879 31.858 111.05 32.6875C112.232 33.5171 113.618 33.9318 115.209 33.9318C116.254 33.9318 117.203 33.75 118.055 33.3864C118.908 33.0228 119.629 32.5 120.22 31.8182C120.811 31.1364 121.232 30.3182 121.482 29.3637H125.504C125.277 30.9091 124.714 32.3012 123.817 33.5398C122.93 34.7671 121.754 35.7443 120.288 36.4716C118.834 37.1875 117.141 37.5455 115.209 37.5455Z" fill="#1B2F6A"/>
<path d="M99.3523 10.8182V16.2727H83.1932V10.8182H99.3523ZM86.892 37V8.92612C86.892 7.02839 87.2614 5.45453 88 4.20453C88.75 2.95453 89.7727 2.01703 91.0682 1.39203C92.3636 0.767029 93.8352 0.454529 95.4829 0.454529C96.5966 0.454529 97.6136 0.539757 98.5341 0.710213C99.4659 0.880667 100.159 1.03408 100.614 1.17044L99.3182 6.62499C99.0341 6.53408 98.6818 6.44885 98.2614 6.3693C97.8523 6.28976 97.4318 6.24999 97 6.24999C95.9318 6.24999 95.1875 6.49999 94.767 6.99999C94.3466 7.48862 94.1364 8.17612 94.1364 9.06249V37H86.892Z" fill="#1B2F6A"/>
<path d="M64.3196 37V10.8182H71.3594V15.3864H71.6321C72.1094 13.7614 72.9105 12.5341 74.0355 11.7045C75.1605 10.8636 76.4559 10.4432 77.9219 10.4432C78.2855 10.4432 78.6775 10.4659 79.098 10.5114C79.5184 10.5568 79.8878 10.6193 80.2059 10.6989V17.142C79.865 17.0398 79.3934 16.9489 78.7912 16.8693C78.1889 16.7898 77.6378 16.75 77.1378 16.75C76.0696 16.75 75.115 16.983 74.2741 17.4489C73.4446 17.9034 72.7855 18.5398 72.2969 19.358C71.8196 20.1761 71.5809 21.1193 71.5809 22.1875V37H64.3196Z" fill="#1B2F6A"/>
<path d="M20.5383 37V10.8182H27.4588V15.4375H27.7656C28.3111 13.9034 29.2201 12.6932 30.4929 11.8068C31.7656 10.9205 33.2883 10.4773 35.0611 10.4773C36.8565 10.4773 38.3849 10.9262 39.6463 11.8239C40.9076 12.7102 41.7486 13.9148 42.169 15.4375H42.4417C42.9758 13.9375 43.9417 12.7387 45.3395 11.8409C46.7486 10.9318 48.4133 10.4773 50.3338 10.4773C52.777 10.4773 54.7599 11.2557 56.2826 12.8125C57.8167 14.358 58.5838 16.5512 58.5838 19.3921V37H51.3395V20.8239C51.3395 19.3693 50.9531 18.2784 50.1804 17.5512C49.4076 16.8239 48.4417 16.4603 47.2826 16.4603C45.9645 16.4603 44.9361 16.8807 44.1974 17.7216C43.4588 18.5512 43.0895 19.6477 43.0895 21.0114V37H36.0497V20.6705C36.0497 19.3864 35.6804 18.3637 34.9417 17.6023C34.2145 16.8409 33.2542 16.4603 32.0611 16.4603C31.2542 16.4603 30.527 16.6648 29.8792 17.0739C29.2429 17.4716 28.7372 18.0341 28.3622 18.7614C27.9872 19.4773 27.7997 20.3182 27.7997 21.2841V37H20.5383Z" fill="#1B2F6A"/>
<path d="M0.897705 37V10.8182H7.93748V15.3864H8.21021C8.68748 13.7614 9.48861 12.5341 10.6136 11.7045C11.7386 10.8636 13.0341 10.4432 14.5 10.4432C14.8636 10.4432 15.2557 10.4659 15.6761 10.5114C16.0966 10.5568 16.4659 10.6193 16.7841 10.6989V17.142C16.4432 17.0398 15.9716 16.9489 15.3693 16.8693C14.767 16.7898 14.2159 16.75 13.7159 16.75C12.6477 16.75 11.6932 16.983 10.8523 17.4489C10.0227 17.9034 9.36361 18.5398 8.87498 19.358C8.39771 20.1761 8.15907 21.1193 8.15907 22.1875V37H0.897705Z" fill="#1B2F6A"/>
</svg>
