<svg width="349" height="48" viewBox="0 0 349 48" fill="none" xmlns="http://www.w3.org/2000/svg">
<path d="M337.047 47.3637C335.104 47.3637 333.433 47.1137 332.036 46.6137C330.638 46.125 329.473 45.4773 328.541 44.6705C327.621 43.875 326.888 43.0227 326.342 42.1137L329.547 39.8637C329.911 40.3409 330.371 40.8864 330.928 41.5C331.484 42.125 332.246 42.6648 333.212 43.1193C334.189 43.5853 335.467 43.8182 337.047 43.8182C339.161 43.8182 340.905 43.3068 342.28 42.2841C343.655 41.2614 344.342 39.6591 344.342 37.4773V32.1591H344.001C343.706 32.6364 343.286 33.2273 342.74 33.9318C342.206 34.625 341.433 35.2443 340.422 35.7898C339.422 36.3239 338.07 36.5909 336.365 36.5909C334.251 36.5909 332.354 36.0909 330.672 35.0909C329.001 34.0909 327.678 32.6364 326.7 30.7273C325.734 28.8182 325.251 26.5 325.251 23.7728C325.251 21.0909 325.723 18.7557 326.666 16.7671C327.609 14.7671 328.922 13.2216 330.604 12.1307C332.286 11.0284 334.229 10.4773 336.433 10.4773C338.138 10.4773 339.49 10.7614 340.49 11.3296C341.501 11.8864 342.274 12.5228 342.808 13.2387C343.354 13.9432 343.774 14.5227 344.07 14.9773H344.479V10.8182H348.365V37.75C348.365 40 347.854 41.8296 346.831 43.2387C345.82 44.6591 344.456 45.6989 342.74 46.358C341.036 47.0284 339.138 47.3637 337.047 47.3637ZM336.911 32.9773C338.524 32.9773 339.888 32.608 341.001 31.8693C342.115 31.1307 342.962 30.0682 343.541 28.6818C344.121 27.2955 344.411 25.6364 344.411 23.7046C344.411 21.8182 344.126 20.1534 343.558 18.7103C342.99 17.2671 342.149 16.1364 341.036 15.3182C339.922 14.5 338.547 14.0909 336.911 14.0909C335.206 14.0909 333.786 14.5227 332.649 15.3864C331.524 16.25 330.678 17.4091 330.109 18.8637C329.553 20.3182 329.274 21.9318 329.274 23.7046C329.274 25.5227 329.558 27.1307 330.126 28.5284C330.706 29.9148 331.558 31.0057 332.683 31.8012C333.82 32.5852 335.229 32.9773 336.911 32.9773Z" fill="#1B2F6A"/>
<path d="M302.423 21.25V37H298.401V10.8182H302.287V14.9091H302.628C303.242 13.5796 304.173 12.5114 305.423 11.7046C306.673 10.8864 308.287 10.4773 310.264 10.4773C312.037 10.4773 313.588 10.8409 314.918 11.5682C316.247 12.2841 317.281 13.375 318.02 14.8409C318.759 16.2955 319.128 18.1364 319.128 20.3637V37H315.105V20.6364C315.105 18.5796 314.571 16.9773 313.503 15.8296C312.435 14.6705 310.969 14.0909 309.105 14.0909C307.821 14.0909 306.673 14.3693 305.662 14.9262C304.662 15.483 303.872 16.2955 303.293 17.3637C302.713 18.4318 302.423 19.7273 302.423 21.25Z" fill="#1B2F6A"/>
<path d="M287.01 37V10.8182H291.033V37H287.01ZM289.055 6.45455C288.271 6.45455 287.595 6.1875 287.027 5.65341C286.47 5.11932 286.192 4.47727 286.192 3.72727C286.192 2.97727 286.47 2.33523 287.027 1.80114C287.595 1.26705 288.271 1 289.055 1C289.839 1 290.51 1.26705 291.067 1.80114C291.635 2.33523 291.919 2.97727 291.919 3.72727C291.919 4.47727 291.635 5.11932 291.067 5.65341C290.51 6.1875 289.839 6.45455 289.055 6.45455Z" fill="#1B2F6A"/>
<path d="M280.959 10.8182V14.2273H267.391V10.8182H280.959ZM271.345 4.54547H275.368V29.5C275.368 30.6364 275.533 31.4887 275.862 32.0568C276.203 32.6137 276.635 32.9887 277.158 33.1818C277.692 33.3637 278.254 33.4546 278.845 33.4546C279.288 33.4546 279.652 33.4318 279.936 33.3864C280.22 33.3296 280.447 33.2841 280.618 33.25L281.436 36.8637C281.163 36.9659 280.783 37.0682 280.294 37.1705C279.805 37.2841 279.186 37.3409 278.436 37.3409C277.3 37.3409 276.186 37.0966 275.095 36.608C274.016 36.1193 273.118 35.375 272.402 34.375C271.697 33.375 271.345 32.1137 271.345 30.5909V4.54547Z" fill="#1B2F6A"/>
<path d="M262.205 2.09088V37H258.182V2.09088H262.205Z" fill="#1B2F6A"/>
<path d="M246.791 26.2955V10.8182H250.814V37H246.791V32.5682H246.519C245.905 33.8977 244.95 35.0284 243.655 35.9602C242.359 36.8807 240.723 37.3409 238.746 37.3409C237.109 37.3409 235.655 36.9829 234.382 36.267C233.109 35.5398 232.109 34.4489 231.382 32.9943C230.655 31.5284 230.291 29.6818 230.291 27.4545V10.8182H234.314V27.1818C234.314 29.0909 234.848 30.6136 235.916 31.75C236.996 32.8864 238.371 33.4545 240.041 33.4545C241.041 33.4545 242.058 33.1989 243.092 32.6875C244.138 32.1761 245.013 31.392 245.717 30.3352C246.433 29.2784 246.791 27.9318 246.791 26.2955Z" fill="#1B2F6A"/>
<path d="M223.759 16.6818L220.145 17.7046C219.918 17.1023 219.582 16.5171 219.139 15.9489C218.707 15.3693 218.116 14.8921 217.366 14.5171C216.616 14.1421 215.656 13.9546 214.486 13.9546C212.884 13.9546 211.548 14.3239 210.48 15.0625C209.423 15.7898 208.895 16.7159 208.895 17.8409C208.895 18.8409 209.259 19.6307 209.986 20.2103C210.713 20.7898 211.849 21.2727 213.395 21.6591L217.281 22.6137C219.622 23.1818 221.366 24.0512 222.514 25.2216C223.662 26.3807 224.236 27.875 224.236 29.7046C224.236 31.2046 223.804 32.5455 222.94 33.7273C222.088 34.9091 220.895 35.8409 219.361 36.5228C217.827 37.2046 216.043 37.5455 214.009 37.5455C211.338 37.5455 209.128 36.9659 207.378 35.8068C205.628 34.6478 204.52 32.9546 204.054 30.7273L207.872 29.7728C208.236 31.1818 208.923 32.2387 209.935 32.9432C210.957 33.6477 212.293 34 213.94 34C215.815 34 217.304 33.6023 218.406 32.8068C219.52 32 220.077 31.0341 220.077 29.9091C220.077 29 219.759 28.2387 219.122 27.625C218.486 27 217.509 26.5341 216.19 26.2273L211.827 25.2046C209.429 24.6364 207.668 23.7557 206.543 22.5625C205.429 21.358 204.872 19.8523 204.872 18.0455C204.872 16.5682 205.287 15.2614 206.116 14.125C206.957 12.9887 208.099 12.0966 209.543 11.4489C210.997 10.8012 212.645 10.4773 214.486 10.4773C217.077 10.4773 219.111 11.0455 220.588 12.1818C222.077 13.3182 223.134 14.8182 223.759 16.6818Z" fill="#1B2F6A"/>
<path d="M181.158 21.25V37H177.135V10.8182H181.021V14.9091H181.362C181.976 13.5796 182.908 12.5114 184.158 11.7046C185.408 10.8864 187.021 10.4773 188.999 10.4773C190.771 10.4773 192.323 10.8409 193.652 11.5682C194.982 12.2841 196.016 13.375 196.754 14.8409C197.493 16.2955 197.862 18.1364 197.862 20.3637V37H193.84V20.6364C193.84 18.5796 193.305 16.9773 192.237 15.8296C191.169 14.6705 189.703 14.0909 187.84 14.0909C186.555 14.0909 185.408 14.3693 184.396 14.9262C183.396 15.483 182.607 16.2955 182.027 17.3637C181.448 18.4318 181.158 19.7273 181.158 21.25Z" fill="#1B2F6A"/>
<path d="M159.131 37.5455C156.767 37.5455 154.693 36.983 152.909 35.858C151.136 34.733 149.75 33.1591 148.75 31.1364C147.761 29.1137 147.267 26.75 147.267 24.0455C147.267 21.3182 147.761 18.9375 148.75 16.9034C149.75 14.8693 151.136 13.2898 152.909 12.1648C154.693 11.0398 156.767 10.4773 159.131 10.4773C161.494 10.4773 163.563 11.0398 165.335 12.1648C167.119 13.2898 168.506 14.8693 169.494 16.9034C170.494 18.9375 170.994 21.3182 170.994 24.0455C170.994 26.75 170.494 29.1137 169.494 31.1364C168.506 33.1591 167.119 34.733 165.335 35.858C163.563 36.983 161.494 37.5455 159.131 37.5455ZM159.131 33.9318C160.926 33.9318 162.403 33.4716 163.563 32.5512C164.722 31.6307 165.58 30.4205 166.136 28.9205C166.693 27.4205 166.972 25.7955 166.972 24.0455C166.972 22.2955 166.693 20.6648 166.136 19.1534C165.58 17.6421 164.722 16.4205 163.563 15.4887C162.403 14.5568 160.926 14.0909 159.131 14.0909C157.335 14.0909 155.858 14.5568 154.699 15.4887C153.54 16.4205 152.682 17.6421 152.125 19.1534C151.568 20.6648 151.29 22.2955 151.29 24.0455C151.29 25.7955 151.568 27.4205 152.125 28.9205C152.682 30.4205 153.54 31.6307 154.699 32.5512C155.858 33.4716 157.335 33.9318 159.131 33.9318Z" fill="#1B2F6A"/>
<path d="M132.318 37.5455C129.864 37.5455 127.75 36.9659 125.977 35.8068C124.205 34.6478 122.841 33.0512 121.886 31.0171C120.932 28.983 120.455 26.6591 120.455 24.0455C120.455 21.3864 120.943 19.0398 121.921 17.0057C122.909 14.9602 124.284 13.3637 126.046 12.2159C127.818 11.0568 129.886 10.4773 132.25 10.4773C134.091 10.4773 135.75 10.8182 137.227 11.5C138.705 12.1818 139.915 13.1364 140.858 14.3637C141.801 15.5909 142.386 17.0227 142.614 18.6591H138.591C138.284 17.4659 137.602 16.4091 136.546 15.4887C135.5 14.5568 134.091 14.0909 132.318 14.0909C130.75 14.0909 129.375 14.5 128.193 15.3182C127.023 16.125 126.108 17.2671 125.449 18.7443C124.801 20.2102 124.477 21.9318 124.477 23.9091C124.477 25.9318 124.795 27.6932 125.432 29.1932C126.08 30.6932 126.989 31.858 128.159 32.6875C129.341 33.5171 130.727 33.9318 132.318 33.9318C133.364 33.9318 134.313 33.75 135.165 33.3864C136.017 33.0228 136.739 32.5 137.33 31.8182C137.92 31.1364 138.341 30.3182 138.591 29.3637H142.614C142.386 30.9091 141.824 32.3012 140.926 33.5398C140.04 34.7671 138.864 35.7443 137.398 36.4716C135.943 37.1875 134.25 37.5455 132.318 37.5455Z" fill="#1B2F6A"/>
<path d="M116.913 0.454529L105.663 42.25H101.982L113.232 0.454529H116.913Z" fill="#1B2F6A"/>
<path d="M99.3523 10.8182V16.2727H83.1932V10.8182H99.3523ZM86.8921 37V8.92612C86.8921 7.02839 87.2614 5.45453 88.0001 4.20453C88.7501 2.95453 89.7728 2.01703 91.0682 1.39203C92.3637 0.767029 93.8353 0.454529 95.483 0.454529C96.5966 0.454529 97.6137 0.539757 98.5341 0.710213C99.466 0.880667 100.159 1.03408 100.614 1.17044L99.3182 6.62499C99.0341 6.53408 98.6819 6.44885 98.2614 6.3693C97.8523 6.28976 97.4319 6.24999 97.0001 6.24999C95.9319 6.24999 95.1876 6.49999 94.7671 6.99999C94.3466 7.48862 94.1364 8.17612 94.1364 9.06249V37H86.8921Z" fill="#1B2F6A"/>
<path d="M64.3196 37V10.8182H71.3594V15.3864H71.6321C72.1094 13.7614 72.9105 12.5341 74.0355 11.7045C75.1605 10.8636 76.4559 10.4432 77.9219 10.4432C78.2855 10.4432 78.6775 10.4659 79.098 10.5114C79.5184 10.5568 79.8878 10.6193 80.2059 10.6989V17.142C79.865 17.0398 79.3934 16.9489 78.7912 16.8693C78.1889 16.7898 77.6378 16.75 77.1378 16.75C76.0696 16.75 75.115 16.983 74.2741 17.4489C73.4446 17.9034 72.7855 18.5398 72.2969 19.358C71.8196 20.1761 71.5809 21.1193 71.5809 22.1875V37H64.3196Z" fill="#1B2F6A"/>
<path d="M20.5383 37V10.8182H27.4588V15.4375H27.7656C28.3111 13.9034 29.2201 12.6932 30.4929 11.8068C31.7656 10.9205 33.2883 10.4773 35.0611 10.4773C36.8565 10.4773 38.3849 10.9262 39.6463 11.8239C40.9076 12.7102 41.7486 13.9148 42.169 15.4375H42.4417C42.9758 13.9375 43.9417 12.7387 45.3395 11.8409C46.7486 10.9318 48.4133 10.4773 50.3338 10.4773C52.777 10.4773 54.7599 11.2557 56.2826 12.8125C57.8167 14.358 58.5838 16.5512 58.5838 19.3921V37H51.3395V20.8239C51.3395 19.3693 50.9531 18.2784 50.1804 17.5512C49.4076 16.8239 48.4417 16.4603 47.2826 16.4603C45.9645 16.4603 44.9361 16.8807 44.1974 17.7216C43.4588 18.5512 43.0895 19.6477 43.0895 21.0114V37H36.0497V20.6705C36.0497 19.3864 35.6804 18.3637 34.9417 17.6023C34.2145 16.8409 33.2542 16.4603 32.0611 16.4603C31.2542 16.4603 30.527 16.6648 29.8792 17.0739C29.2429 17.4716 28.7372 18.0341 28.3622 18.7614C27.9872 19.4773 27.7997 20.3182 27.7997 21.2841V37H20.5383Z" fill="#1B2F6A"/>
<path d="M0.897705 37V10.8182H7.93748V15.3864H8.21021C8.68748 13.7614 9.48861 12.5341 10.6136 11.7045C11.7386 10.8636 13.0341 10.4432 14.5 10.4432C14.8636 10.4432 15.2557 10.4659 15.6761 10.5114C16.0966 10.5568 16.4659 10.6193 16.7841 10.6989V17.142C16.4432 17.0398 15.9716 16.9489 15.3693 16.8693C14.767 16.7898 14.2159 16.75 13.7159 16.75C12.6477 16.75 11.6932 16.983 10.8523 17.4489C10.0227 17.9034 9.36361 18.5398 8.87498 19.358C8.39771 20.1761 8.15907 21.1193 8.15907 22.1875V37H0.897705Z" fill="#1B2F6A"/>
</svg>
